<?xml version="1.0" encoding="utf-8"?>
<!-- Generator: Adobe Illustrator 24.0.1, SVG Export Plug-In . SVG Version: 6.00 Build 0)  -->
<svg version="1.1" id="Layer_1" xmlns="http://www.w3.org/2000/svg" xmlns:xlink="http://www.w3.org/1999/xlink" x="0px" y="0px"
	 viewBox="0 0 129.99 114.61" style="enable-background:new 0 0 129.99 114.61;" xml:space="preserve">
<style type="text/css">
	.st0{fill:#EF7926;}
	.st1{fill:#212D56;}
</style>
<g>
	<path class="st0" d="M65.16,18.01c-27.6,0-49.98,22.23-49.98,49.66c0,12.32,4.52,23.59,12,32.27c0,0,5.67-0.16,26.16-17.41V45.3
		c0-1.83,1.48-3.31,3.31-3.31c1.82,0,3.3,1.46,3.32,3.27l0,31.27c0.71-0.58,1.44-1.15,2.16-1.67V45.34c0-1.83,1.48-3.31,3.31-3.31
		c1.83,0,3.3,1.46,3.32,3.27l-0.02,27.35c0.61,0.15,1.34,0.44,2.02,0.95V45.3c0-1.83,1.48-3.31,3.32-3.31c1.82,0,3.3,1.46,3.31,3.27
		l0.03,41.98c0.14-0.05,1.16-0.46,2.02-1.62V45.3c0-1.83,1.49-3.31,3.32-3.31c1.82,0,3.3,1.46,3.32,3.27l0,29.35
		c1.88-3.08,3.63-5.87,4.36-6.81c0,0,3.36-4.66,6.78-4.66c0,0,6.59-0.69,5.26,9.57c0,0-0.38,5.1,3.87,2.65c0,0,6.08-3.15,8.3-4.98
		l0.42-0.22c0.04-0.82,0.06-1.66,0.06-2.49C115.13,40.24,92.76,18.01,65.16,18.01z"/>
	<path class="st1" d="M20.91,96.22l-8.38,4.47L11.7,99.2l4.95-4.94l1.04-1.02c-0.36,0.08-0.88,0.18-1.56,0.32L9.3,94.88l-0.74-1.33
		l8.38-4.47l0.53,0.95l-7.01,3.74l8.22-1.56l0.49,0.89l-5.92,5.97l7.13-3.8L20.91,96.22z"/>
	<polygon class="st1" points="15.79,86.17 6.69,88.97 4.81,83.09 5.88,82.76 7.42,87.56 10.2,86.7 8.76,82.21 9.84,81.88 
		11.28,86.37 14.38,85.42 12.78,80.43 13.85,80.1 	"/>
	<path class="st1" d="M7.8,76.82l-0.3-2.41c-0.06-0.52-0.17-0.92-0.32-1.17c-0.15-0.26-0.36-0.45-0.63-0.58
		c-0.27-0.13-0.57-0.18-0.9-0.14c-0.48,0.06-0.83,0.25-1.07,0.59c-0.24,0.34-0.32,0.81-0.24,1.41l0.33,2.67L7.8,76.82z M13.23,77.31
		l-9.47,1.12L3.3,74.68c-0.1-0.78-0.08-1.37,0.05-1.77c0.13-0.39,0.39-0.73,0.77-1.02c0.38-0.29,0.84-0.46,1.39-0.53
		c0.71-0.08,1.32,0.05,1.81,0.4c0.49,0.35,0.85,0.91,1.06,1.67c0.13-0.33,0.28-0.59,0.44-0.78c0.32-0.38,0.69-0.72,1.1-1.02
		l2.4-1.78l0.17,1.41l-1.83,1.36c-0.72,0.53-1.2,0.92-1.44,1.17c-0.24,0.25-0.39,0.49-0.46,0.71c-0.07,0.22-0.08,0.52-0.03,0.89
		l0.16,1.29l4.21-0.5L13.23,77.31z"/>
	<path class="st1" d="M9.26,67.66l-0.03-1.07c0.53-0.02,0.94-0.13,1.25-0.31c0.31-0.18,0.56-0.45,0.76-0.81
		c0.2-0.36,0.32-0.78,0.35-1.24c0.05-0.67-0.07-1.2-0.35-1.59c-0.28-0.39-0.65-0.6-1.13-0.63C9.82,62,9.57,62.05,9.35,62.17
		c-0.22,0.12-0.4,0.31-0.56,0.57c-0.15,0.26-0.38,0.84-0.68,1.72c-0.27,0.79-0.53,1.34-0.77,1.67C7.1,66.46,6.8,66.7,6.45,66.87
		c-0.35,0.17-0.74,0.24-1.17,0.21c-0.77-0.05-1.38-0.36-1.84-0.93c-0.45-0.57-0.65-1.32-0.59-2.24c0.04-0.63,0.19-1.18,0.45-1.64
		c0.26-0.46,0.61-0.81,1.06-1.04c0.45-0.23,0.96-0.34,1.54-0.32L5.93,62c-0.62,0.02-1.1,0.19-1.42,0.52
		c-0.32,0.33-0.5,0.8-0.54,1.43c-0.04,0.64,0.06,1.13,0.3,1.48c0.24,0.35,0.57,0.54,0.98,0.57c0.39,0.02,0.69-0.08,0.92-0.31
		s0.48-0.77,0.75-1.61c0.27-0.82,0.49-1.4,0.67-1.73c0.28-0.5,0.62-0.87,1.04-1.11c0.41-0.24,0.89-0.34,1.44-0.31
		c0.54,0.04,1.03,0.21,1.46,0.51s0.74,0.71,0.95,1.2c0.2,0.49,0.28,1.08,0.24,1.75c-0.07,1.05-0.41,1.87-1.04,2.46
		C11.06,67.43,10.25,67.7,9.26,67.66"/>
	<path class="st1" d="M13.39,57.98l-9.35-1.86l0.23-1.1l9.35,1.86L13.39,57.98z M3.38,56.08L1.95,55.8l0.26-1.27l1.43,0.28
		L3.38,56.08z"/>
	<polygon class="st1" points="14.33,53.63 5.33,50.51 5.72,49.42 14.32,47.65 7.25,45.2 7.61,44.19 16.61,47.3 16.22,48.39 
		7.62,50.15 14.69,52.61 	"/>
	<path class="st1" d="M13.94,31l-1.09-0.76l0.65-0.89l1.09,0.76L13.94,31z M15.9,30.24l0.67-0.92l4.49,3.14
		c0.75,0.53,1.31,1.04,1.68,1.53c0.37,0.5,0.53,1.05,0.51,1.67c-0.03,0.62-0.28,1.25-0.75,1.9c-0.66,0.91-1.41,1.42-2.25,1.53
		c-0.83,0.1-1.88-0.29-3.16-1.18l-4.49-3.14l0.67-0.92l4.48,3.13c0.7,0.49,1.26,0.79,1.66,0.89c0.4,0.1,0.78,0.07,1.14-0.08
		c0.36-0.16,0.68-0.43,0.97-0.82c0.47-0.65,0.65-1.25,0.53-1.78c-0.12-0.53-0.68-1.14-1.66-1.83L15.9,30.24z M12.65,32.77
		l-1.09-0.76l0.65-0.89l1.09,0.76L12.65,32.77z"/>
	<polygon class="st1" points="26.44,32.36 19.85,25.6 20.71,24.8 29.19,27.03 24.01,21.71 24.81,20.97 31.39,27.73 30.54,28.53 
		22.06,26.29 27.24,31.61 	"/>
	<path class="st1" d="M34.28,25.64l-5.54-7.61l0.94-0.65l5.54,7.61L34.28,25.64z M28.29,17.56l-0.85-1.16l1.08-0.75l0.85,1.16
		L28.29,17.56z"/>
	<path class="st1" d="M40.27,21.95l-7.43-6.74l1.1-0.57l5.23,4.98c0.4,0.39,0.78,0.77,1.13,1.15c-0.12-0.52-0.23-1.04-0.32-1.57
		l-1.14-7.08l1.04-0.53l1.43,9.82L40.27,21.95z"/>
	<polygon class="st1" points="46.56,19.03 43.67,10.12 49.66,8.25 50,9.31 45.1,10.83 45.99,13.55 50.57,12.12 50.91,13.18 
		46.33,14.6 47.31,17.64 52.4,16.05 52.74,17.1 	"/>
	<path class="st1" d="M56.06,11.17l2.45-0.3c0.54-0.06,0.94-0.17,1.2-0.32c0.26-0.15,0.46-0.35,0.59-0.62s0.18-0.56,0.14-0.88
		C60.38,8.58,60.18,8.23,59.84,8c-0.34-0.23-0.82-0.31-1.44-0.23L55.67,8.1L56.06,11.17z M55.58,16.49L54.4,7.21l3.83-0.47
		c0.8-0.1,1.4-0.08,1.8,0.04c0.4,0.13,0.75,0.38,1.05,0.75c0.3,0.37,0.48,0.83,0.54,1.36c0.09,0.7-0.05,1.29-0.4,1.78
		c-0.36,0.49-0.92,0.83-1.7,1.05c0.34,0.13,0.61,0.27,0.8,0.43c0.38,0.31,0.73,0.67,1.05,1.07l1.83,2.34l-1.43,0.18l-1.4-1.79
		c-0.54-0.7-0.94-1.17-1.2-1.4c-0.26-0.24-0.5-0.38-0.73-0.45c-0.22-0.06-0.53-0.07-0.91-0.03l-1.32,0.16l0.52,4.12L55.58,16.49z"/>
	<path class="st1" d="M65.42,12.56l1.09-0.04c0.03,0.52,0.13,0.92,0.32,1.22c0.19,0.3,0.46,0.55,0.83,0.74
		c0.37,0.2,0.79,0.31,1.27,0.34c0.68,0.04,1.22-0.07,1.62-0.35c0.4-0.27,0.61-0.64,0.64-1.11c0.02-0.28-0.04-0.52-0.16-0.73
		c-0.12-0.21-0.32-0.39-0.59-0.54c-0.27-0.15-0.85-0.37-1.76-0.66c-0.81-0.26-1.37-0.51-1.71-0.75c-0.33-0.24-0.58-0.53-0.76-0.87
		C66.04,9.46,65.97,9.07,66,8.65c0.05-0.76,0.36-1.36,0.95-1.8c0.58-0.45,1.34-0.64,2.28-0.59c0.64,0.04,1.2,0.19,1.67,0.44
		c0.47,0.25,0.83,0.6,1.07,1.03c0.24,0.44,0.35,0.94,0.34,1.51l-1.11,0.02c-0.02-0.61-0.2-1.07-0.53-1.39
		c-0.33-0.31-0.82-0.49-1.46-0.53c-0.65-0.04-1.15,0.06-1.51,0.3c-0.36,0.24-0.55,0.56-0.57,0.96C67.08,9,67.19,9.3,67.43,9.52
		c0.24,0.22,0.79,0.47,1.65,0.73c0.84,0.26,1.43,0.48,1.77,0.65c0.51,0.27,0.89,0.61,1.14,1.01c0.25,0.4,0.35,0.88,0.32,1.41
		c-0.03,0.53-0.21,1.01-0.52,1.43c-0.31,0.42-0.72,0.73-1.22,0.93c-0.5,0.2-1.1,0.28-1.79,0.24c-1.07-0.06-1.91-0.4-2.51-1.01
		C65.67,14.32,65.38,13.53,65.42,12.56"/>
	<path class="st1" d="M77.2,6.76l0.28-1.4l1.3,0.25l-0.28,1.4L77.2,6.76z M75.3,16.57l1.86-9.17l1.13,0.22l-1.86,9.17L75.3,16.57z"
		/>
	<polygon class="st1" points="81.92,18.22 84.6,10.41 81.89,9.51 82.25,8.47 88.78,10.62 88.42,11.67 85.69,10.77 83.01,18.58 	"/>
	<polygon class="st1" points="88.05,20.5 92.58,12.27 98.11,15.2 97.58,16.17 93.06,13.78 91.68,16.29 95.91,18.53 95.37,19.5 
		91.14,17.27 89.6,20.07 94.3,22.55 93.76,23.52 	"/>
	<path class="st1" d="M97.81,22.53l0.91,0.58c-0.28,0.44-0.43,0.83-0.45,1.18s0.06,0.71,0.25,1.08c0.19,0.37,0.47,0.7,0.84,0.99
		c0.54,0.42,1.05,0.63,1.53,0.63c0.48,0,0.88-0.19,1.17-0.55c0.18-0.22,0.27-0.45,0.3-0.69c0.02-0.25-0.03-0.5-0.17-0.78
		c-0.13-0.27-0.49-0.78-1.05-1.53c-0.51-0.67-0.83-1.19-0.96-1.57c-0.13-0.38-0.17-0.76-0.11-1.14c0.06-0.38,0.22-0.73,0.49-1.06
		c0.48-0.59,1.09-0.91,1.83-0.95c0.74-0.04,1.48,0.23,2.21,0.8c0.51,0.39,0.88,0.83,1.11,1.3c0.24,0.47,0.33,0.95,0.27,1.45
		c-0.06,0.49-0.26,0.97-0.61,1.43l-0.92-0.6c0.34-0.51,0.46-0.99,0.37-1.44c-0.09-0.45-0.39-0.86-0.89-1.25
		c-0.51-0.4-0.98-0.6-1.41-0.6c-0.43-0.01-0.78,0.15-1.04,0.47c-0.24,0.3-0.33,0.6-0.26,0.92c0.06,0.32,0.37,0.83,0.92,1.53
		c0.54,0.69,0.9,1.2,1.07,1.53c0.26,0.51,0.38,1,0.34,1.47c-0.04,0.47-0.22,0.92-0.57,1.34c-0.34,0.42-0.76,0.71-1.26,0.89
		c-0.5,0.17-1.02,0.2-1.55,0.08c-0.53-0.12-1.06-0.39-1.6-0.81c-0.84-0.65-1.33-1.4-1.47-2.24C96.98,24.11,97.21,23.3,97.81,22.53"
		/>
	<path class="st1" d="M110.86,24.38l1.05-0.99l0.92,0.94l-1.05,0.99L110.86,24.38z M103.57,31.36l6.88-6.47l0.8,0.81l-6.88,6.47
		L103.57,31.36z"/>
	<path class="st1" d="M111.48,41.52l-0.56-0.9l6.37-3.81c-0.35-0.07-0.75-0.21-1.2-0.42c-0.45-0.21-0.82-0.42-1.12-0.64l0.97-0.58
		c0.57,0.34,1.15,0.58,1.76,0.73c0.61,0.15,1.14,0.2,1.59,0.14l0.36,0.58L111.48,41.52z"/>
	<path class="st1" d="M121.14,46.73c0.63-0.26,1.06-0.61,1.29-1.07c0.23-0.45,0.26-0.88,0.09-1.27c-0.18-0.41-0.53-0.71-1.05-0.87
		c-0.52-0.17-1.11-0.12-1.75,0.14c-0.58,0.24-0.97,0.58-1.18,1.03c-0.21,0.45-0.22,0.89-0.04,1.32c0.18,0.43,0.51,0.72,0.98,0.88
		C119.95,47.04,120.5,46.99,121.14,46.73 M115.56,44.37l0.49,0.89c-0.87,0.53-1.14,1.15-0.84,1.87c0.14,0.32,0.36,0.57,0.68,0.76
		c0.31,0.18,0.77,0.26,1.36,0.23c0.59-0.03,1.24-0.18,1.93-0.46l0.22-0.09c-0.44-0.06-0.84-0.21-1.19-0.46
		c-0.35-0.25-0.6-0.56-0.76-0.91c-0.27-0.64-0.25-1.3,0.07-1.97c0.32-0.67,0.92-1.19,1.81-1.56c0.92-0.38,1.75-0.43,2.49-0.17
		c0.74,0.26,1.25,0.74,1.54,1.43c0.21,0.49,0.25,1,0.14,1.55s-0.41,1.05-0.89,1.51c-0.48,0.47-1.26,0.92-2.35,1.36
		c-1.21,0.49-2.2,0.75-2.97,0.78c-0.77,0.02-1.41-0.11-1.9-0.41c-0.49-0.3-0.85-0.71-1.07-1.24c-0.25-0.6-0.28-1.17-0.07-1.73
		C114.45,45.2,114.89,44.73,115.56,44.37"/>
	<path class="st1" d="M123.76,55.28c0.66-0.16,1.14-0.45,1.44-0.86c0.3-0.41,0.39-0.83,0.29-1.25c-0.11-0.44-0.41-0.78-0.9-1.02
		c-0.49-0.24-1.07-0.28-1.75-0.12c-0.61,0.15-1.05,0.43-1.33,0.84c-0.28,0.41-0.36,0.85-0.24,1.3c0.11,0.45,0.39,0.79,0.83,1.01
		C122.54,55.41,123.09,55.44,123.76,55.28 M118.62,52.12l0.35,0.95c-0.94,0.39-1.31,0.97-1.12,1.73c0.09,0.34,0.27,0.62,0.55,0.85
		c0.28,0.22,0.72,0.37,1.31,0.43c0.59,0.06,1.25,0,1.98-0.17l0.23-0.06c-0.43-0.12-0.8-0.33-1.11-0.64c-0.31-0.3-0.51-0.64-0.6-1.01
		c-0.17-0.67-0.05-1.32,0.37-1.94c0.42-0.62,1.1-1.04,2.04-1.27c0.97-0.24,1.8-0.17,2.48,0.2c0.69,0.37,1.12,0.92,1.3,1.64
		c0.13,0.51,0.09,1.03-0.1,1.55c-0.2,0.52-0.57,0.98-1.12,1.37c-0.54,0.39-1.39,0.72-2.53,1c-1.27,0.31-2.29,0.42-3.06,0.33
		c-0.77-0.09-1.37-0.32-1.81-0.69c-0.44-0.37-0.73-0.83-0.87-1.38c-0.16-0.63-0.09-1.2,0.19-1.72
		C117.39,52.77,117.89,52.38,118.62,52.12"/>
	<path class="st1" d="M119.84,65.66l-1.12,0.1l-0.51-5.61c0.45-0.05,0.97,0.05,1.57,0.32c0.59,0.26,1.31,0.78,2.15,1.54
		c0.98,0.9,1.73,1.47,2.24,1.73c0.51,0.26,0.98,0.37,1.4,0.33c0.48-0.04,0.86-0.23,1.14-0.57c0.28-0.33,0.39-0.73,0.35-1.18
		c-0.04-0.49-0.25-0.87-0.6-1.15c-0.36-0.28-0.84-0.4-1.46-0.34l0.03-1.08c0.92,0,1.63,0.22,2.13,0.66c0.5,0.45,0.79,1.07,0.86,1.86
		c0.08,0.87-0.13,1.54-0.62,2.04c-0.5,0.49-1.08,0.77-1.77,0.83c-0.6,0.05-1.2-0.07-1.79-0.37c-0.59-0.3-1.39-0.9-2.4-1.79
		c-0.64-0.57-1.08-0.94-1.3-1.1c-0.23-0.16-0.45-0.29-0.68-0.39L119.84,65.66z"/>
	<rect x="51.9" y="27.2" class="st1" width="35.73" height="4.27"/>
	<polygon class="st1" points="52.02,33.18 87.63,33.18 86.03,40.26 53.49,40.26 	"/>
	<path class="st1" d="M110.21,78.1c0,0-5.71,4.15-6.72,4.85c0,0-1.58,1.33-2.91,0.76c0,0-1.59-0.7-0.7-4.41c0,0,1.59-9-2.85-9
		c0,0-3.87-0.45-8.62,8.31c0,0-9.95,18.46-16.48,16.31c0,0-3.1-0.63-2.09-7.68c0,0,1.39-9.63-3.49-9.63c0,0-2.16-0.78-10.51,7.56
		c0,0-14.39,15.43-25.1,18.77c0,0,2.24,2.31,6.6,5.33c0,0,10.13-7.32,16.82-14.89c0,0,5.71-7.07,8.41-6.4c0,0,3.32-0.31,0.56,10.01
		c0,0-2.89,9.21,2.88,10.73c0,0,8.35,3.54,22.59-20.56c0,0,2.82-4.82,5.53-4.27c0,0,2.94,0.3,2.33,5.25c0,0-0.8,3.84,2.7,3.84
		c0,0,2.82,0.06,7.06-6.1c0,0,2.51-3.99,6.32-3.2c0,0,1.32-3.51,1.97-8.02c0,0-2.46,1.19-4.02,2.26L110.21,78.1z"/>
	<path class="st1" d="M56.66,41.99c-1.83,0-3.31,1.48-3.31,3.31v37.23c0.35-0.29,0.69-0.58,1.04-0.88c0,0,2.59-2.66,5.59-5.12
		l0-31.27C59.95,43.46,58.48,41.99,56.66,41.99z"/>
	<path class="st1" d="M65.45,42.03c-1.83,0-3.31,1.48-3.31,3.31v29.52c2.04-1.47,4.02-2.56,5.31-2.4c0,0,0.56,0,1.31,0.19
		l0.02-27.35C68.75,43.49,67.27,42.03,65.45,42.03z"/>
	<path class="st1" d="M74.08,42c-1.83,0-3.32,1.48-3.32,3.31v28.3c1.02,0.77,1.91,2.05,2.06,4.22c0,0,0.19,3.47,0.26,4.97
		c0,0-0.13,4.47,4.31,4.47c0,0,0.02-0.01,0.03-0.01l-0.03-41.98C77.38,43.46,75.9,42,74.08,42z"/>
	<path class="st1" d="M82.76,41.99c-1.83,0-3.32,1.48-3.32,3.31v40.33c0.08-0.1,0.15-0.2,0.23-0.32c0,0,3.38-5.73,6.41-10.7l0-29.35
		C86.06,43.46,84.58,41.99,82.76,41.99z"/>
</g>
</svg>
